<?xml version="1.0" encoding="utf-8"?>
<!DOCTYPE svg PUBLIC "-//W3C//DTD SVG 1.0//EN" "http://www.w3.org/TR/2001/REC-SVG-20010904/DTD/svg10.dtd">
<svg version="1.0" xmlns="http://www.w3.org/2000/svg" width="1013px" height="1012px" viewBox="0 0 1013 1012" preserveAspectRatio="xMidYMid meet">
 <g fill="#f7f7f5">
  <path d="M477 1010.3 c-80.3 -5.9 -147.3 -25.7 -215.6 -63.9 -106.4 -59.3 -189 -156.9 -230.3 -272.2 -13.2 -36.8 -22.1 -75.9 -26.8 -118.2 -2.7 -24.2 -2.4 -80.3 0.5 -104.8 13.3 -109.1 54.7 -201.6 125.9 -281.5 13.6 -15.1 37.8 -38.7 53.3 -51.6 79.2 -66.4 178.7 -107.7 279.8 -116.2 19.3 -1.6 87.1 -0.6 103.1 1.5 52 6.9 97.2 19.6 143.6 40.1 94.8 41.9 175.2 112.8 229 202 26.3 43.5 45.4 89.5 57.4 138.5 15.3 62.1 18.9 122.6 11.1 186 -6.8 55 -21.7 103.9 -47.9 157.5 -16 32.8 -27 50.5 -51.2 83.2 -30.3 40.8 -76.4 84.4 -120.9 114.3 -85.8 57.5 -181.6 86.6 -283.5 85.8 -12.6 -0.1 -25 -0.3 -27.5 -0.5z m67 -39.4 c94.7 -6.7 186.5 -44.5 264 -108.7 14 -11.6 43.5 -41 54.9 -54.7 60.1 -72.2 96.5 -155.8 107.8 -247.5 2.6 -21.3 2.6 -86.5 0 -106.5 -5.1 -38.6 -12.1 -69.8 -22.3 -99.7 -13.2 -38.6 -34.8 -81.1 -58.1 -114.6 -24.6 -35.2 -61.5 -74.5 -94.1 -99.9 -12 -9.4 -46.4 -32.6 -58.7 -39.5 -59.2 -33.5 -130.3 -55.6 -192 -59.8 -23 -1.5 -66.2 -1.2 -83.2 0.5 -161 16.9 -300.1 112.6 -372.8 256.5 -26.7 52.9 -42.8 110.8 -47.5 170.9 -1.5 19.7 -1.3 65 0.5 81.1 7.5 70.6 26.8 130.6 61.4 190.9 30.6 53.4 77.5 105.4 128.7 142.7 39.8 28.9 84.7 52 130 66.8 59.3 19.3 116.7 26.1 181.4 21.5z"/>
  <path d="M455.8 783 l-27.7 -0.5 7.5 -8.5 c21 -23.7 36.9 -55.6 46 -92.5 3.7 -15.1 8.3 -43.9 7.1 -45.1 -0.3 -0.4 -6 4.5 -12.6 10.8 -20.7 20 -38.8 31.7 -59.9 38.7 -25.5 8.5 -55.9 8.3 -80.4 -0.5 -40.8 -14.7 -70.7 -47.2 -81.1 -88.2 -1.9 -7.6 -2.2 -11.3 -2.1 -29.7 0 -19.3 0.2 -22 2.8 -33 6.2 -26.8 18.1 -51.5 39.3 -81.2 15.2 -21.3 38.4 -46.4 75.8 -82 34.1 -32.4 94.9 -93.1 106.9 -106.7 7.7 -8.7 18.1 -21.5 26.9 -33 l2.8 -3.6 4.4 5.7 c17.7 23.6 35.5 42 144.7 149.8 20.5 20.3 40 40.5 46.3 48 31.5 38 49.1 70.8 56.6 105.6 3 13.8 3.7 38.5 1.4 52 -5 29.8 -18.4 53.7 -41.1 72.7 -15.5 13 -32 21.7 -51.4 26.9 -12.6 3.4 -36.8 4.3 -50.6 1.9 -30 -5.2 -59.4 -22 -84.9 -48.5 -2.1 -2.2 -4.5 -4.1 -5.2 -4.1 -1.9 0 -1.6 5.9 1.1 22.3 8.4 49 26.1 88.2 52.7 116.2 l7.2 7.5 -52.4 -0.2 c-28.8 -0.2 -64.9 -0.5 -80.1 -0.8z"/>
 </g>
</svg>